<?xml version="1.0" encoding="utf-8"?>
<!-- Generator: Adobe Illustrator 28.3.0, SVG Export Plug-In . SVG Version: 6.00 Build 0)  -->
<svg version="1.1" id="Layer_1" xmlns="http://www.w3.org/2000/svg" xmlns:xlink="http://www.w3.org/1999/xlink" x="0px" y="0px"
	 viewBox="0 0 40 40" style="enable-background:new 0 0 40 40;" xml:space="preserve">
<style type="text/css">
	.st0{fill:#FFFFFF;}
	.st1{fill:#625EAA;}
</style>
<rect class="st0" width="40" height="40"/>
<ellipse class="st1" cx="13.8" cy="27.4" rx="4.3" ry="3.1"/>
<ellipse class="st1" cx="26.2" cy="24" rx="4.3" ry="3.1"/>
<rect x="22.5" y="16" transform="matrix(-1.836970e-16 1 -1 -1.836970e-16 46.4904 -12.9904)" class="st1" width="14.5" height="1.5"/>
<rect x="8.4" y="17.8" transform="matrix(-1.836970e-16 1 -1 -1.836970e-16 35.9601 1.1043)" class="st1" width="18.1" height="1.5"/>
<rect x="16.7" y="9.5" transform="matrix(-1 -1.224647e-16 1.224647e-16 -1 47.1683 20.5192)" class="st1" width="13.8" height="1.5"/>
<rect x="16.7" y="12.5" transform="matrix(-1 -1.224647e-16 1.224647e-16 -1 47.1683 26.5961)" class="st1" width="13.8" height="1.5"/>
</svg>
