<?xml version="1.0" encoding="utf-8"?>
<!-- Generator: Adobe Illustrator 28.3.0, SVG Export Plug-In . SVG Version: 6.00 Build 0)  -->
<svg version="1.1" id="Layer_1" xmlns="http://www.w3.org/2000/svg" xmlns:xlink="http://www.w3.org/1999/xlink" x="0px" y="0px"
	 viewBox="0 0 40 40" style="enable-background:new 0 0 40 40;" xml:space="preserve">
<style type="text/css">
	.st0{fill:#FFFFFF;}
	.st1{fill:#625EAA;}
</style>
<rect class="st0" width="40" height="40"/>
<g>
	<rect x="24.3" y="13.3" class="st1" width="1.5" height="4.4"/>
	<rect x="24.3" y="22.3" class="st1" width="1.5" height="4.4"/>
	<polygon class="st1" points="18.8,21.5 17.7,22.5 16.6,21.5 16.6,21.5 11,15.9 9.5,14.4 9.5,13.3 10.6,13.3 	"/>
	<polygon class="st1" points="25.8,13.3 25.8,14.4 18.8,21.5 17.7,22.5 16.6,21.5 17.7,20.4 23.2,14.8 24.7,13.3 	"/>
	<rect x="9.5" y="13.3" class="st1" width="1.5" height="13.4"/>
	<rect x="9.5" y="13.3" class="st1" width="16.3" height="1.5"/>
	
		<rect x="9.5" y="25.2" transform="matrix(-1 -1.224647e-16 1.224647e-16 -1 35.3125 51.8524)" class="st1" width="16.3" height="1.5"/>
	<rect x="24.3" y="19.2" transform="matrix(-1 -1.224647e-16 1.224647e-16 -1 53.3013 40)" class="st1" width="4.8" height="1.5"/>
	<polygon class="st1" points="28.3,17.7 28.3,22.3 30.5,20 	"/>
</g>
</svg>
