<?xml version="1.0" encoding="utf-8"?>
<!-- Generator: Adobe Illustrator 28.3.0, SVG Export Plug-In . SVG Version: 6.00 Build 0)  -->
<svg version="1.1" id="Layer_1" xmlns="http://www.w3.org/2000/svg" xmlns:xlink="http://www.w3.org/1999/xlink" x="0px" y="0px"
	 viewBox="0 0 40 40" style="enable-background:new 0 0 40 40;" xml:space="preserve">
<style type="text/css">
	.st0{fill:#FFFFFF;}
	.st1{fill:#625EAA;}
</style>
<rect class="st0" width="40" height="40"/>
<g>
	<g>
		<path class="st1" d="M18.9,22.4l-2.7,2.7c-0.4-0.4-0.8-0.8-1.2-1.2c-1.3-1.4-2.5-2.9-3.5-4.5c-0.6-1.1-1.2-2.2-1.5-3.4
			c-0.1-0.4-0.2-0.9-0.3-1.3V14c0-0.2,0.1-0.5,0.1-0.7c0.1-0.4,0.3-0.7,0.5-1c0.7-0.7,1.4-1.4,2.1-2.1c0.7-0.6,1.7-0.6,2.4-0.1
			c0.1,0.1,0.3,0.2,0.4,0.3c0.9,0.9,1.8,1.8,2.7,2.7c0.7,0.7,0.8,1.6,0.3,2.4c-0.2,0.4-0.6,0.6-1,0.8c-0.6,0.2-1,0.6-1.2,1.1
			c-0.1,0.3-0.2,0.7-0.1,1.1c0.3,0.9,0.7,1.7,1.4,2.5C17.9,21.5,18.3,22,18.9,22.4z"/>
		<path class="st1" d="M29.6,27.6l-1.9,1.9c-0.4,0.4-0.9,0.6-1.5,0.7c0,0-0.1,0-0.1,0H25c-0.2,0-0.5-0.1-0.7-0.1
			c-1.6-0.3-3-1.1-4.4-1.9c-0.9-0.6-1.7-1.1-2.5-1.8l2.9-2.9c0,0,0.1,0,0.1,0.1c0.4,0.2,0.9,0.4,1.4,0.4c0.8-0.1,1.3-0.4,1.6-1.1
			c0.2-0.4,0.3-0.8,0.7-1c0.7-0.5,1.8-0.5,2.4,0.1c1,1,2,2,3,3C30.5,25.6,30.4,26.8,29.6,27.6z"/>
	</g>
</g>
<polygon class="st1" points="30.5,9.5 30.5,10.8 10.8,30.5 9.5,30.5 9.5,29.2 29.2,9.5 "/>
</svg>
