<?xml version="1.0" encoding="utf-8"?>
<!-- Generator: Adobe Illustrator 28.3.0, SVG Export Plug-In . SVG Version: 6.00 Build 0)  -->
<svg version="1.1" id="Layer_1" xmlns="http://www.w3.org/2000/svg" xmlns:xlink="http://www.w3.org/1999/xlink" x="0px" y="0px"
	 viewBox="0 0 40 40" style="enable-background:new 0 0 40 40;" xml:space="preserve">
<style type="text/css">
	.st0{fill:#FFFFFF;}
	.st1{fill:#625EAA;}
</style>
<rect class="st0" width="40" height="40"/>
<rect x="10.7" y="11.7" transform="matrix(6.123234e-17 -1 1 6.123234e-17 1.0878 26.0214)" class="st1" width="5.8" height="1.5"/>
<rect x="15.5" y="13.1" transform="matrix(6.123234e-17 -1 1 6.123234e-17 3.1093 30.8749)" class="st1" width="2.9" height="1.5"/>
<rect x="18.1" y="12.3" transform="matrix(6.123234e-17 -1 1 6.123234e-17 7.2344 33.4531)" class="st1" width="4.5" height="1.5"/>
<rect x="9.5" y="16.9" class="st1" width="13.7" height="1.5"/>
<rect x="23.2" y="18.6" class="st1" width="7.3" height="1.5"/>
<rect x="23.2" y="25.1" class="st1" width="7.3" height="1.5"/>
<path class="st1" d="M23.2,16.9v10.3c0,1-0.8,1.8-1.8,1.8h-8.5c-1,0-1.8-0.8-1.8-1.8V16.9H9.5v10.6c0,1.6,1.3,3,3,3h9.3
	c1.6,0,3-1.3,3-3V16.9H23.2z"/>
<rect x="25.7" y="21.9" transform="matrix(6.123234e-17 -1 1 6.123234e-17 7.0977 52.3555)" class="st1" width="8.1" height="1.5"/>
</svg>
