<?xml version="1.0" encoding="utf-8"?>
<!-- Generator: Adobe Illustrator 28.3.0, SVG Export Plug-In . SVG Version: 6.00 Build 0)  -->
<svg version="1.1" id="Layer_1" xmlns="http://www.w3.org/2000/svg" xmlns:xlink="http://www.w3.org/1999/xlink" x="0px" y="0px"
	 viewBox="0 0 167 90.3" style="enable-background:new 0 0 167 90.3;" xml:space="preserve">
<style type="text/css">
	.st0{fill:#131324;}
	.st1{fill:#C3C1E1;}
	.st2{fill:#FFFFFF;}
</style>
<rect x="0" y="0" class="st0" width="167.3" height="90.2"/>
<g>
	<path class="st1" d="M47,40.7c0.9-1.3,2.1-2.3,3.5-3.1c1.4-0.8,2.9-1.2,4.5-1.2c1.3,0,2.4,0.2,3.4,0.5c1,0.3,1.8,0.8,2.4,1.4l1-6.3
		c-1.7-0.9-3.7-1.3-6-1.3c-2.8,0-5.3,0.6-7.7,1.9c-2.4,1.3-4.3,3-5.8,5.1c-1.5,2.2-2.5,4.5-2.9,7.2c-0.4,2.6-0.2,5,0.6,7.2
		c0.8,2.2,2.2,3.9,4.2,5.1c2,1.3,4.3,1.9,7.1,1.9c2.3,0,4.4-0.4,6.4-1.3l1-6.3c-0.8,0.6-1.7,1.1-2.8,1.4c-1.1,0.3-2.3,0.5-3.6,0.5
		c-1.6,0-3-0.4-4.2-1.2c-1.2-0.8-2-1.8-2.5-3.1c-0.5-1.3-0.6-2.7-0.4-4.2C45.5,43.4,46.1,42,47,40.7z"/>
	<path class="st2" d="M88.8,27.3l-5,31.3h5.6l4.2-26.4L88.8,27.3z"/>
	<path class="st2" d="M99.3,27.3l-5,31.3h5.6l4.2-26.4L99.3,27.3z"/>
	<path class="st2" d="M124.1,44c-0.5-1.6-1.4-2.9-2.6-3.8c-1.3-0.9-2.9-1.4-4.8-1.4c-1.9,0-3.7,0.5-5.3,1.4c-1.6,0.9-3,2.1-4,3.7
		c-1.1,1.5-1.7,3.2-2,5c-0.3,1.9-0.2,3.5,0.4,5.1c0.6,1.5,1.6,2.8,3,3.7c1.4,0.9,3.1,1.3,5.2,1.3c2.6,0,4.9-0.5,6.9-1.6l0.8-5
		c-2.3,1-4.5,1.6-6.4,1.6c-1.2,0-2.2-0.3-3-0.8c-0.8-0.6-1.3-1.4-1.4-2.4h13.4c0.1-0.3,0.2-0.7,0.3-1.3
		C124.7,47.4,124.6,45.6,124.1,44z M111.3,47.1c0.4-1,1.1-1.7,1.9-2.3c0.8-0.6,1.7-0.9,2.7-0.9c0.9,0,1.7,0.3,2.3,0.8
		c0.6,0.6,0.9,1.3,1.1,2.3H111.3z"/>
	<path class="st2" d="M147.1,39.1h-6.3l-5,6.4l-3-6.4h-6.3l5.2,9.9l-8.3,9.7h6.6l4.7-6.2L147.1,39.1z M134.8,52.5l2.7,6.2h6.6
		l-3.4-6.2H134.8z"/>
	<path class="st1" d="M74.1,33.5h-3.3c-0.6-5.9-5.3-10.2-11.7-10.2h-9c-7.6,0-14.7,6.2-15.9,13.8l0,0.1h0.1c0.9,0,1.5,0.7,1.4,1.6
		l-2.9,18.1c-0.1,0.9-1,1.6-1.9,1.6h-0.3c1.6,4.4,5.7,7.4,10.9,7.6c0.6-1.2,1.8-2,3.1-2h4.4c1.6,0,2.8,1.3,2.5,3
		c-0.3,1.6-1.8,3-3.4,3h-4.4c-1.3,0-2.3-0.8-2.5-2C34.8,67.9,30,64,28.4,58.6h-1.4c-4.5,0-7.5-3.6-6.8-8.1l0.8-5.3
		c0.6-4,4.1-7.4,8.1-8l0.2,10.7l1.7-10.8c1.5-9.4,10.3-17,19.7-17h9C67.7,20.1,73.6,25.9,74.1,33.5z"/>
	<g>
		<path class="st2" d="M83.2,39l-3.1,19.8h-5.7l0.4-2.5C73,58.1,70.8,59,68.4,59c-1.8,0-3.2-0.4-4.4-1.3c-1.2-0.9-2-2.1-2.5-3.7
			c-0.5-1.6-0.6-3.3-0.3-5.2c0.3-1.9,0.9-3.6,1.9-5.2c1-1.5,2.2-2.8,3.7-3.7c1.5-0.9,3.1-1.3,4.9-1.3c2.4,0,4.3,0.9,5.5,2.8l0.4-2.5
			H83.2z M74.1,52.1c1-0.9,1.6-2,1.8-3.3c0.2-1.3,0-2.4-0.7-3.3s-1.7-1.4-2.9-1.4c-1.3,0-2.4,0.4-3.4,1.3c-1,0.9-1.5,2-1.8,3.3
			c-0.2,1.3,0,2.4,0.7,3.3c0.7,0.9,1.7,1.3,2.9,1.3C72,53.5,73.1,53,74.1,52.1z"/>
	</g>
</g>
</svg>
