<?xml version="1.0" encoding="utf-8"?>
<!-- Generator: Adobe Illustrator 28.3.0, SVG Export Plug-In . SVG Version: 6.00 Build 0)  -->
<svg version="1.1" id="Layer_1" xmlns="http://www.w3.org/2000/svg" xmlns:xlink="http://www.w3.org/1999/xlink" x="0px" y="0px"
	 viewBox="0 0 40 40" style="enable-background:new 0 0 40 40;" xml:space="preserve">
<style type="text/css">
	.st0{fill:#FFFFFF;}
	.st1{fill:#625EAA;}
</style>
<rect class="st0" width="40" height="40"/>
<g>
	<g>
		<path class="st1" d="M15.6,16.9c0-0.1,0-0.2,0.1-0.3c0.1-0.2,0.1-0.4,0.3-0.5c0.3-0.4,0.7-0.7,1.1-1.1c0.3-0.3,0.9-0.3,1.2,0
			c0.1,0,0.1,0.1,0.2,0.2c0.5,0.5,0.9,0.9,1.4,1.4c0.3,0.3,0.4,0.8,0.2,1.2c-0.1,0.2-0.3,0.3-0.5,0.4c-0.3,0.1-0.5,0.3-0.6,0.6
			c-0.1,0.2-0.1,0.4,0,0.6c0.1,0.5,0.4,0.9,0.7,1.3c0.4,0.5,0.9,1,1.5,1.3c0.2,0.1,0.5,0.2,0.7,0.2c0.4,0,0.7-0.2,0.8-0.6
			c0.1-0.2,0.2-0.4,0.4-0.5c0.4-0.3,0.9-0.3,1.2,0.1c0.5,0.5,1,1,1.5,1.5c0.4,0.4,0.4,1,0,1.4c-0.3,0.3-0.6,0.6-0.9,0.9
			c-0.2,0.2-0.5,0.3-0.7,0.4c0,0,0,0-0.1,0c-0.2,0-0.4,0-0.6,0c-0.1,0-0.2,0-0.4-0.1c-0.8-0.2-1.5-0.5-2.2-1
			c-0.9-0.6-1.8-1.3-2.5-2.1c-0.7-0.7-1.3-1.5-1.8-2.3c-0.3-0.5-0.6-1.1-0.8-1.7c-0.1-0.2-0.1-0.4-0.1-0.7
			C15.6,17.2,15.6,17.1,15.6,16.9z"/>
	</g>
</g>
<rect x="14.8" y="29" transform="matrix(-1 -1.224647e-16 1.224647e-16 -1 45.3125 59.5375)" class="st1" width="15.7" height="1.5"/>
<rect x="19.2" y="19.2" transform="matrix(6.123234e-17 -1 1 6.123234e-17 9.7266 49.7266)" class="st1" width="21" height="1.5"/>
<rect x="5.1" y="15.4" transform="matrix(6.123234e-17 -1 1 6.123234e-17 -4.3984 28.0391)" class="st1" width="13.4" height="1.5"/>
<rect x="11" y="9.5" transform="matrix(-1 -1.224647e-16 1.224647e-16 -1 41.5469 20.5469)" class="st1" width="19.5" height="1.5"/>
<polygon class="st1" points="14.1,22.9 9.5,22.9 11.8,25.2 "/>
</svg>
