<?xml version="1.0" encoding="utf-8"?>
<!-- Generator: Adobe Illustrator 28.3.0, SVG Export Plug-In . SVG Version: 6.00 Build 0)  -->
<svg version="1.1" id="Layer_1" xmlns="http://www.w3.org/2000/svg" xmlns:xlink="http://www.w3.org/1999/xlink" x="0px" y="0px"
	 viewBox="0 0 40 40" style="enable-background:new 0 0 40 40;" xml:space="preserve">
<style type="text/css">
	.st0{fill:#FFFFFF;}
	.st1{fill:#625EAA;}
</style>
<rect class="st0" width="40" height="40"/>
<rect x="19.2" y="0" transform="matrix(-1.836970e-16 1 -1 -1.836970e-16 30.3669 -9.6331)" class="st1" width="1.5" height="20.8"/>
<rect x="14.5" y="15.4" transform="matrix(0.7071 0.7071 -0.7071 0.7071 17.1459 -5.5175)" class="st1" width="1.5" height="5.2"/>
<rect x="20.5" y="13.1" transform="matrix(0.7071 0.7071 -0.7071 0.7071 18.2593 -10.054)" class="st1" width="1.5" height="7.8"/>
<rect x="17" y="15.4" transform="matrix(-0.7071 0.7071 -0.7071 -0.7071 43.0492 18.0449)" class="st1" width="1.5" height="5.2"/>
<rect x="24" y="13.5" transform="matrix(-0.7071 0.7071 -0.7071 -0.7071 53.6407 9.9159)" class="st1" width="1.5" height="5.2"/>
<rect x="19.2" y="24" transform="matrix(-1.836970e-16 1 -1 -1.836970e-16 49.6332 9.6332)" class="st1" width="1.5" height="11.3"/>
<rect x="19.2" y="13.9" transform="matrix(-1.836970e-16 1 -1 -1.836970e-16 44.2894 4.2894)" class="st1" width="1.5" height="20.8"/>
<rect x="9.6" y="9.6" transform="matrix(-1 -1.224647e-16 1.224647e-16 -1 20.7336 34.6562)" class="st1" width="1.5" height="15.5"/>
<rect x="19.2" y="23.5" transform="matrix(-1 -1.224647e-16 1.224647e-16 -1 40 53.9226)" class="st1" width="1.5" height="6.9"/>
<rect x="28.9" y="9.6" transform="matrix(-1 -1.224647e-16 1.224647e-16 -1 59.2661 34.6562)" class="st1" width="1.5" height="15.5"/>
</svg>
