<?xml version="1.0" encoding="utf-8"?>
<!-- Generator: Adobe Illustrator 28.3.0, SVG Export Plug-In . SVG Version: 6.00 Build 0)  -->
<svg version="1.1" id="Layer_1" xmlns="http://www.w3.org/2000/svg" xmlns:xlink="http://www.w3.org/1999/xlink" x="0px" y="0px"
	 viewBox="0 0 34.4 28.1" style="enable-background:new 0 0 34.4 28.1;" xml:space="preserve">
<style type="text/css">
	.st0{fill:#FFFFFF;}
</style>
<g>
	<g>
		<g>
			<path class="st0" d="M1.5,23.7c0.5,2.6,5.3,4,8.8,4l0-8l-3.3,0c-0.6-4.1-0.6-7.3,0-11.4l3.3,0l0-8c-3.5,0-8.3,1.5-8.8,4
				c0,0,0,0,0,0C-0.1,12-0.1,16.1,1.5,23.7z"/>
		</g>
		<g>
			<g>
				<path class="st0" d="M24.2,4.2c-2.1,0-4,0.6-5.6,1.8c-2.6,1.8-4.3,4.8-4.3,8.1s1.7,6.4,4.3,8.1c1.6,1.1,3.5,1.8,5.6,1.8
					c5.5,0,9.9-4.4,9.9-9.9C34.1,8.6,29.6,4.2,24.2,4.2z M29.3,15.4h-6.5V7.3h2.6v5.5h3.9V15.4z"/>
			</g>
		</g>
	</g>
</g>
</svg>
