<?xml version="1.0" encoding="utf-8"?>
<!-- Generator: Adobe Illustrator 28.3.0, SVG Export Plug-In . SVG Version: 6.00 Build 0)  -->
<svg version="1.1" id="Layer_1" xmlns="http://www.w3.org/2000/svg" xmlns:xlink="http://www.w3.org/1999/xlink" x="0px" y="0px"
	 viewBox="0 0 25.7 20.1" style="enable-background:new 0 0 25.7 20.1;" xml:space="preserve">
<style type="text/css">
	.st0{fill:#FFFFFF;}
</style>
<g>
	<g>
		<g>
			<path class="st0" d="M10.1,17.1C10.5,19,14,20,16.5,20l0-5.8l-2.4,0c-0.4-2.9-0.4-5.3,0-8.3l2.4,0l0-5.8c-2.5,0-6,1.1-6.4,2.9
				c0,0,0,0,0,0C8.9,8.6,8.9,11.5,10.1,17.1z"/>
		</g>
		<g>
			<path class="st0" d="M4.9,14.9C1.8,9,4.8,4.9,4.9,4.8l1.2,0.9L5.5,5.2l0.6,0.4C6,5.8,3.5,9.2,6.2,14.2L4.9,14.9z"/>
		</g>
		<g>
			<path class="st0" d="M2.1,17.2C-2.4,8.7,2,2.7,2.2,2.5l1.2,0.9L2.8,2.9l0.6,0.4c-0.2,0.2-4,5.5,0.1,13.1L2.1,17.2z"/>
		</g>
		<g>
			<path class="st0" d="M20.8,15.2l-1.2-0.9c0.1-0.1,2.6-3.6-0.1-8.6L20.8,5C23.9,10.9,20.9,15,20.8,15.2z"/>
		</g>
		<g>
			<path class="st0" d="M23.5,17.5l-1.2-0.9l0.6,0.4l-0.6-0.4c0.2-0.2,4-5.5-0.1-13.1l1.3-0.7C28.1,11.3,23.7,17.2,23.5,17.5z"/>
		</g>
	</g>
</g>
</svg>
