<?xml version="1.0" encoding="utf-8"?>
<!-- Generator: Adobe Illustrator 28.3.0, SVG Export Plug-In . SVG Version: 6.00 Build 0)  -->
<svg version="1.1" id="Layer_1" xmlns="http://www.w3.org/2000/svg" xmlns:xlink="http://www.w3.org/1999/xlink" x="0px" y="0px"
	 viewBox="0 0 40 40" style="enable-background:new 0 0 40 40;" xml:space="preserve">
<style type="text/css">
	.st0{fill:#FFFFFF;}
	.st1{fill:#625EAA;}
</style>
<rect class="st0" width="40" height="40"/>
<rect x="20.9" y="19.2" class="st1" width="7.9" height="1.5"/>
<polygon class="st1" points="28,17.8 28,22.2 30.5,20 "/>
<rect x="20.9" y="13.3" class="st1" width="7.9" height="1.5"/>
<polygon class="st1" points="28,11.8 28,16.3 30.5,14 "/>
<rect x="20.9" y="25.2" class="st1" width="7.9" height="1.5"/>
<polygon class="st1" points="28,23.7 28,28.2 30.5,26 "/>
<g>
	<g>
		<path class="st1" d="M12.4,10.1c0.2-0.1,0.3-0.2,0.5-0.3c0.3-0.2,0.6-0.3,0.9-0.3c0.9,0,1.7,0,2.6,0c0.8,0,1.4,0.7,1.5,1.4
			c0,0.1,0,0.3,0,0.4c0,1.1,0,2.2,0,3.3c0,0.8-0.5,1.5-1.3,1.7c-0.4,0.1-0.7,0-1.1-0.1c-0.5-0.2-0.9-0.2-1.4-0.1
			c-0.3,0.1-0.5,0.3-0.7,0.6c-0.4,0.7-0.6,1.5-0.7,2.3c-0.1,1.2,0,2.3,0.3,3.4c0.1,0.4,0.3,0.8,0.7,1.1c0.5,0.4,1.1,0.5,1.7,0.3
			c0.3-0.1,0.7-0.3,1.1-0.2c0.8,0.1,1.4,0.8,1.4,1.6c0,1.2,0,2.4,0,3.6c0,0.9-0.8,1.7-1.8,1.7c-0.8,0-1.5,0-2.3,0
			c-0.5,0-0.9-0.2-1.3-0.5c0,0-0.1,0-0.1-0.1c-0.2-0.2-0.5-0.5-0.7-0.7c-0.1-0.2-0.2-0.3-0.3-0.5c-0.7-1.2-1.2-2.5-1.5-3.8
			c-0.4-1.8-0.5-3.7-0.5-5.6c0-1.7,0.2-3.3,0.6-4.9c0.3-1.1,0.6-2.1,1.2-3c0.2-0.3,0.4-0.7,0.7-1C12.1,10.4,12.3,10.2,12.4,10.1z"/>
	</g>
</g>
</svg>
