<?xml version="1.0" encoding="utf-8"?>
<!-- Generator: Adobe Illustrator 28.3.0, SVG Export Plug-In . SVG Version: 6.00 Build 0)  -->
<svg version="1.1" id="Layer_1" xmlns="http://www.w3.org/2000/svg" xmlns:xlink="http://www.w3.org/1999/xlink" x="0px" y="0px"
	 viewBox="0 0 40 40" style="enable-background:new 0 0 40 40;" xml:space="preserve">
<style type="text/css">
	.st0{fill:#FFFFFF;}
	.st1{fill:#625EAA;}
</style>
<rect class="st0" width="40" height="40"/>
<rect x="9.5" y="14.7" transform="matrix(-1 -1.224647e-16 1.224647e-16 -1 28.125 31.0041)" class="st1" width="9.1" height="1.5"/>
<rect x="9.5" y="17.7" transform="matrix(-1 -1.224647e-16 1.224647e-16 -1 28.125 37.0014)" class="st1" width="9.1" height="1.5"/>
<rect x="9.5" y="20.7" transform="matrix(-1 -1.224647e-16 1.224647e-16 -1 28.125 42.9986)" class="st1" width="9.1" height="1.5"/>
<rect x="9.5" y="23.7" transform="matrix(-1 -1.224647e-16 1.224647e-16 -1 28.125 48.9959)" class="st1" width="9.1" height="1.5"/>
<g>
	<path class="st1" d="M30.3,25.3h-9.5c0.1-2.5,2.2-4.5,4.8-4.5C28.1,20.7,30.2,22.7,30.3,25.3z"/>
	<circle class="st1" cx="25.6" cy="17" r="2.2"/>
</g>
</svg>
