<?xml version="1.0" encoding="utf-8"?>
<!-- Generator: Adobe Illustrator 28.3.0, SVG Export Plug-In . SVG Version: 6.00 Build 0)  -->
<svg version="1.1" id="Layer_1" xmlns="http://www.w3.org/2000/svg" xmlns:xlink="http://www.w3.org/1999/xlink" x="0px" y="0px"
	 viewBox="0 0 40 40" style="enable-background:new 0 0 40 40;" xml:space="preserve">
<style type="text/css">
	.st0{fill:#FFFFFF;}
	.st1{fill:#625EAA;}
</style>
<rect class="st0" width="40" height="40"/>
<circle class="st1" cx="25.3" cy="20" r="5.1"/>
<rect x="23.2" y="19.1" transform="matrix(0.7071 -0.7071 0.7071 0.7071 -7.6935 23.0643)" class="st0" width="1.6" height="3.5"/>
<rect x="25.4" y="17" transform="matrix(0.7071 0.7071 -0.7071 0.7071 21.796 -12.6616)" class="st0" width="1.6" height="5.9"/>
<rect x="9.6" y="9.6" class="st1" width="12" height="1.5"/>
<rect x="9.6" y="16" class="st1" width="12" height="1.5"/>
<rect x="-0.1" y="19.2" transform="matrix(-1.836970e-16 1 -1 -1.836970e-16 30.3485 9.6152)" class="st1" width="20.8" height="1.5"/>
<rect x="9.6" y="22.4" class="st1" width="12" height="1.5"/>
<rect x="9.6" y="28.9" class="st1" width="12" height="1.5"/>
<rect x="10.3" y="19.2" transform="matrix(-1.836970e-16 1 -1 -1.836970e-16 40.7552 -0.7915)" class="st1" width="20.8" height="1.5"/>
</svg>
