<?xml version="1.0" encoding="UTF-8"?>
<svg id="Layer_1" data-name="Layer 1" xmlns="http://www.w3.org/2000/svg" version="1.1" viewBox="0 0 16.7 16.7">
  <defs>
    <style>
      .cls-1 {
        fill: #6259ca;
        stroke-width: 0px;
      }
    </style>
  </defs>
  <path class="cls-1" d="M12.9,4.6v9.9H3.9V2.2h5.6l.7-1.7H2.2v15.6h12.4V3.9l-1.7.8Z"/>
  <polygon class="cls-1" points="12.9 4.9 9.5 2.2 10.2 .5 14.6 3.9 12.9 4.9"/>
  <path class="cls-1" d="M5.7,13.3c0,0,0,0-.1,0,0,0,0,0,0-.1s0,0,0,0,0,0,0,0l1.9-2.8-1.8-2.7s0,0,0-.1,0,0,0-.1c0,0,0,0,.1,0h1.3c0,0,.2,0,.2,0,0,0,0,0,.1.1l1,1.6,1.1-1.6s0,0,.1-.1c0,0,.1,0,.2,0h1.2s0,0,.1,0c0,0,0,0,0,.1s0,0,0,.1l-1.8,2.7,1.9,2.9s0,0,0,0c0,0,0,0,0,0,0,0,0,0,0,.1s0,0-.1,0h-1.3c0,0-.2,0-.2,0,0,0,0,0-.1-.1l-1.2-1.7-1.1,1.7s0,0,0,.1-.1,0-.2,0h-1.3Z"/>
</svg>