<?xml version="1.0" encoding="utf-8"?>
<!-- Generator: Adobe Illustrator 28.3.0, SVG Export Plug-In . SVG Version: 6.00 Build 0)  -->
<svg version="1.1" id="Layer_1" xmlns="http://www.w3.org/2000/svg" xmlns:xlink="http://www.w3.org/1999/xlink" x="0px" y="0px"
	 viewBox="0 0 20 20" style="enable-background:new 0 0 20 20;" xml:space="preserve">
<style type="text/css">
	.st0{fill:#625EAA;}
</style>
<path class="st0" d="M20,12V8h-2.4c-0.2-0.7-0.5-1.4-0.8-2l1.7-1.7l-2.8-2.8L14,3.2c-0.6-0.4-1.3-0.7-2-0.8V0H8v2.4
	C7.3,2.6,6.6,2.9,6,3.2L4.3,1.5L1.5,4.3L3.2,6C2.8,6.6,2.6,7.3,2.4,8H0V12h2.4c0.2,0.7,0.5,1.4,0.8,2l-1.7,1.7l2.8,2.8L6,16.8
	c0.6,0.4,1.3,0.7,2,0.9V20H12v-2.4c0.7-0.2,1.4-0.5,2-0.9l1.7,1.7l2.8-2.8L16.8,14c0.4-0.6,0.7-1.3,0.8-2H20z M14.3,10
	c0,0.5-0.1,0.9-0.2,1.3c-0.1,0.2-0.2,0.4-0.3,0.7c-0.4,0.8-1.1,1.5-1.9,1.9c-0.2,0.1-0.4,0.2-0.6,0.3c-0.4,0.1-0.9,0.2-1.4,0.2
	c-0.5,0-0.9-0.1-1.3-0.2C8.4,14.1,8.2,14,8,13.9c-0.8-0.4-1.5-1.1-1.9-1.9c-0.1-0.2-0.2-0.4-0.2-0.6c-0.1-0.4-0.2-0.9-0.2-1.4
	s0.1-1,0.2-1.4C5.9,8.4,6,8.2,6.1,8C6.5,7.2,7.2,6.5,8,6.1C8.2,6,8.4,5.9,8.7,5.9C9.1,5.7,9.5,5.7,10,5.7c0.5,0,0.9,0.1,1.4,0.2
	C11.5,6,11.8,6,12,6.2c0.8,0.4,1.5,1.1,1.9,1.9c0.1,0.2,0.2,0.4,0.3,0.6C14.2,9.1,14.3,9.5,14.3,10z"/>
</svg>
