<?xml version="1.0" encoding="utf-8"?>
<!-- Generator: Adobe Illustrator 28.3.0, SVG Export Plug-In . SVG Version: 6.00 Build 0)  -->
<svg version="1.1" id="Layer_1" xmlns="http://www.w3.org/2000/svg" xmlns:xlink="http://www.w3.org/1999/xlink" x="0px" y="0px"
	 viewBox="0 0 40 40" style="enable-background:new 0 0 40 40;" xml:space="preserve">
<style type="text/css">
	.st0{fill:#FFFFFF;}
	.st1{fill:#625EAA;}
</style>
<rect class="st0" width="40" height="40"/>
<rect x="9.5" y="9.5" class="st1" width="7.5" height="7.5"/>
<rect x="23" y="9.5" class="st1" width="7.5" height="7.5"/>
<rect x="9.5" y="23" class="st1" width="7.5" height="7.5"/>
<rect x="23" y="23" class="st1" width="7.5" height="7.5"/>
<rect x="13" y="26" class="st1" width="13.7" height="1.5"/>
<rect x="13" y="12.5" class="st1" width="13.7" height="1.5"/>
<rect x="22.7" y="23.4" transform="matrix(-1.836970e-16 1 -1 -1.836970e-16 51.1719 -2.8672)" class="st1" width="8.6" height="1.5"/>
<rect x="9" y="15.7" transform="matrix(-1.836970e-16 1 -1 -1.836970e-16 29.7207 3.2207)" class="st1" width="8.6" height="1.5"/>
<rect x="12.5" y="19.2" transform="matrix(-1 -1.224647e-16 1.224647e-16 -1 40.2695 39.9726)" class="st1" width="15.3" height="1.5"/>
</svg>
