<?xml version="1.0" encoding="utf-8"?>
<!-- Generator: Adobe Illustrator 28.3.0, SVG Export Plug-In . SVG Version: 6.00 Build 0)  -->
<svg version="1.1" id="Layer_1" xmlns="http://www.w3.org/2000/svg" xmlns:xlink="http://www.w3.org/1999/xlink" x="0px" y="0px"
	 viewBox="0 0 40 40" style="enable-background:new 0 0 40 40;" xml:space="preserve">
<style type="text/css">
	.st0{fill:#FFFFFF;}
	.st1{fill:#625EAA;}
</style>
<rect class="st0" width="40" height="40"/>
<rect x="7.8" y="14.4" transform="matrix(6.123234e-17 -1 1 6.123234e-17 -3.4029 27.0436)" class="st1" width="8" height="1.5"/>
<rect x="11" y="11.2" class="st1" width="5.4" height="1.5"/>
<rect x="25.6" y="22.5" transform="matrix(-1.836970e-16 1 -1 -1.836970e-16 51.4961 -4.8633)" class="st1" width="5.1" height="1.5"/>
<rect x="23.6" y="24.3" transform="matrix(-1 -1.224647e-16 1.224647e-16 -1 52.5514 50.1719)" class="st1" width="5.4" height="1.5"/>
<rect x="9.5" y="20.8" transform="matrix(-1 -1.224647e-16 1.224647e-16 -1 31.5938 43.0938)" class="st1" width="12.6" height="1.5"/>
<rect x="9.5" y="25.9" transform="matrix(-1 -1.224647e-16 1.224647e-16 -1 31.5938 53.2656)" class="st1" width="12.6" height="1.5"/>
<rect x="9.5" y="25.9" transform="matrix(-1 -1.224647e-16 1.224647e-16 -1 31.5938 53.2656)" class="st1" width="12.6" height="1.5"/>
<rect x="7" y="23.3" transform="matrix(6.123234e-17 -1 1 6.123234e-17 -13.8164 34.3633)" class="st1" width="6.6" height="1.5"/>
<rect x="18" y="23.3" transform="matrix(6.123234e-17 -1 1 6.123234e-17 -2.7695 45.4102)" class="st1" width="6.6" height="1.5"/>
<rect x="13.5" y="27.4" transform="matrix(6.123234e-17 -1 1 6.123234e-17 -12.3828 43.9766)" class="st1" width="4.6" height="1.5"/>
<rect x="12.8" y="29" transform="matrix(-1 -1.224647e-16 1.224647e-16 -1 31.5938 59.4531)" class="st1" width="5.9" height="1.5"/>
<rect x="17.9" y="9.5" transform="matrix(-1 -1.224647e-16 1.224647e-16 -1 48.4062 20.5469)" class="st1" width="12.6" height="1.5"/>
<rect x="17.9" y="14.6" transform="matrix(-1 -1.224647e-16 1.224647e-16 -1 48.4062 30.7188)" class="st1" width="12.6" height="1.5"/>
<rect x="15.4" y="12" transform="matrix(6.123234e-17 -1 1 6.123234e-17 5.8633 31.4961)" class="st1" width="6.6" height="1.5"/>
<rect x="26.4" y="12" transform="matrix(6.123234e-17 -1 1 6.123234e-17 16.9102 42.543)" class="st1" width="6.6" height="1.5"/>
<rect x="21.9" y="16.1" transform="matrix(6.123234e-17 -1 1 6.123234e-17 7.2969 41.1094)" class="st1" width="4.6" height="1.5"/>
<rect x="21.3" y="17.7" transform="matrix(-1 -1.224647e-16 1.224647e-16 -1 48.4062 36.9062)" class="st1" width="5.9" height="1.5"/>
</svg>
