<?xml version="1.0" encoding="utf-8"?>
<!-- Generator: Adobe Illustrator 28.3.0, SVG Export Plug-In . SVG Version: 6.00 Build 0)  -->
<svg version="1.1" id="Layer_1" xmlns="http://www.w3.org/2000/svg" xmlns:xlink="http://www.w3.org/1999/xlink" x="0px" y="0px"
	 viewBox="0 0 40 40" style="enable-background:new 0 0 40 40;" xml:space="preserve">
<style type="text/css">
	.st0{fill:#FFFFFF;}
	.st1{fill:#625EAA;}
</style>
<rect class="st0" width="40" height="40"/>
<g>
	<rect x="96.6" y="9.6" class="st1" width="1.5" height="4.4"/>
	<rect x="96.6" y="18.5" class="st1" width="1.5" height="4.4"/>
	<polygon class="st1" points="91.1,17.7 90,18.8 88.9,17.7 88.9,17.7 83.3,12.1 81.8,10.6 81.8,9.6 82.9,9.6 	"/>
	<polygon class="st1" points="98.1,9.6 98.1,10.6 91.1,17.7 90,18.8 88.9,17.7 90,16.6 95.5,11.1 97,9.6 	"/>
	<rect x="81.8" y="9.6" class="st1" width="1.5" height="13.4"/>
	<rect x="81.8" y="9.6" class="st1" width="16.3" height="1.5"/>
	
		<rect x="81.8" y="21.4" transform="matrix(-1 -1.224647e-16 1.224647e-16 -1 179.9375 44.3366)" class="st1" width="16.3" height="1.5"/>
	
		<rect x="96.6" y="15.5" transform="matrix(-1 -1.224647e-16 1.224647e-16 -1 197.9263 32.4842)" class="st1" width="4.8" height="1.5"/>
	<polygon class="st1" points="100.6,14 100.6,18.5 102.8,16.2 	"/>
</g>
<g>
	<path class="st1" d="M22.2,22.5c-0.3,0-0.5,0.1-0.8,0.2c-0.5,0.2-0.9,0.1-1.2-0.2c-0.3-0.2-0.4-0.5-0.5-0.8
		c-0.3-0.8-0.3-1.7-0.2-2.5c0.1-0.6,0.2-1.2,0.5-1.8c0.1-0.2,0.3-0.4,0.5-0.5c0.3-0.1,0.7-0.1,1,0C21.8,17,22,17,22.3,17
		c0.6-0.2,0.9-0.6,1-1.2v-2.4c0-0.1,0-0.2,0-0.3c-0.1-0.6-0.6-1-1.1-1.1c-0.6,0-1.3,0-1.9,0c-0.2,0-0.5,0.1-0.7,0.2
		c-0.1,0.1-0.2,0.2-0.4,0.2c-0.1,0.1-0.2,0.2-0.3,0.3c-0.2,0.2-0.3,0.5-0.5,0.7c-0.4,0.7-0.7,1.5-0.9,2.2c-0.1,0.3-0.1,0.6-0.2,1
		c-0.4-0.2-0.8-0.4-1.3-0.5v-1.6h-1.7v1.6c-0.5,0.1-0.9,0.3-1.3,0.5l-1.2-1.1l-1.2,1.2l1.1,1.1c-0.3,0.4-0.4,0.8-0.5,1.3H9.5v1.7
		h1.6c0.1,0.5,0.3,0.9,0.5,1.3l-1.1,1.1l1.2,1.2l1.2-1.1c0.4,0.3,0.8,0.4,1.3,0.5v1.6h1.7v-1.6c0.5-0.1,0.9-0.3,1.3-0.5l0.1,0.1
		c0.2,1,0.5,1.9,1.1,2.8c0.1,0.1,0.2,0.3,0.3,0.4c0.2,0.2,0.3,0.3,0.5,0.5c0,0,0,0,0.1,0c0.3,0.2,0.6,0.3,1,0.3c0.6,0,1.1,0,1.7,0
		c0.7,0,1.3-0.5,1.3-1.2c0-0.9,0-1.8,0-2.7C23.2,23,22.8,22.5,22.2,22.5z M15.9,22.4c-0.3,0.1-0.6,0.2-0.9,0.2s-0.6,0-0.9-0.2
		c-0.1,0-0.2-0.1-0.2-0.1c-0.5-0.2-1-0.7-1.2-1.2c0-0.1-0.1-0.1-0.1-0.2c-0.1-0.3-0.1-0.6-0.1-0.9s0-0.6,0.1-0.9
		c0-0.1,0.1-0.2,0.1-0.2c0.2-0.5,0.7-1,1.2-1.2c0.1,0,0.1-0.1,0.2-0.1c0.3-0.1,0.6-0.2,0.9-0.2s0.6,0,0.9,0.1c0.1,0,0.2,0.1,0.2,0.1
		c0.3,0.1,0.6,0.4,0.8,0.6c0.2,0.2,0.3,0.4,0.4,0.6c0,0.1,0.1,0.2,0.1,0.2c0.1,0.3,0.1,0.6,0.1,0.9s0,0.6-0.1,0.9
		c0,0.1-0.1,0.2-0.1,0.2c-0.1,0.2-0.2,0.4-0.3,0.5c-0.2,0.3-0.5,0.5-0.9,0.7C16.1,22.3,16,22.4,15.9,22.4z"/>
	<polygon class="st1" points="30.5,20 28.3,17.7 28.3,19.2 21.8,19.2 21.8,20.8 28.3,20.8 28.3,22.3 	"/>
</g>
</svg>
