<?xml version="1.0" encoding="utf-8"?>
<!-- Generator: Adobe Illustrator 28.3.0, SVG Export Plug-In . SVG Version: 6.00 Build 0)  -->
<svg version="1.1" id="Layer_1" xmlns="http://www.w3.org/2000/svg" xmlns:xlink="http://www.w3.org/1999/xlink" x="0px" y="0px"
	 viewBox="0 0 40 40" style="enable-background:new 0 0 40 40;" xml:space="preserve">
<style type="text/css">
	.st0{fill:#FFFFFF;}
	.st1{fill:#F1F2F2;}
	.st2{fill:#625EAA;}
</style>
<rect class="st0" width="40" height="40"/>
<rect x="9.5" y="9.5" class="st1" width="21" height="21"/>
<path class="st2" d="M22.2,22.7c-0.3,0-0.5,0.1-0.8,0.2c-0.5,0.2-0.9,0.1-1.2-0.2c-0.3-0.2-0.4-0.5-0.5-0.8
	c-0.3-0.8-0.3-1.7-0.2-2.5c0.1-0.6,0.2-1.2,0.5-1.8c0.1-0.2,0.3-0.4,0.5-0.5c0.3-0.1,0.7-0.1,1,0c0.3,0.1,0.5,0.2,0.8,0.1
	c0.6-0.2,0.9-0.6,1-1.2v-2.4c0-0.1,0-0.2,0-0.3c-0.1-0.6-0.6-1-1.1-1.1c-0.6,0-1.3,0-1.9,0c-0.2,0-0.5,0.1-0.7,0.2
	c-0.1,0.1-0.2,0.2-0.4,0.2c-0.1,0.1-0.2,0.2-0.3,0.3c-0.2,0.2-0.3,0.5-0.5,0.7c-0.4,0.7-0.7,1.5-0.9,2.2c-0.1,0.3-0.1,0.6-0.2,1
	c-0.4-0.2-0.8-0.4-1.3-0.5v-1.6h-1.7v1.6c-0.5,0.1-0.9,0.3-1.3,0.5l-1.2-1.1L10.5,17l1.1,1.1c-0.3,0.4-0.4,0.8-0.5,1.3H9.5v1.7h1.6
	c0.1,0.5,0.3,0.9,0.5,1.3l-1.1,1.1l1.2,1.2l1.2-1.1c0.4,0.3,0.8,0.4,1.3,0.5v1.6h1.7v-1.6c0.5-0.1,0.9-0.3,1.3-0.5l0.1,0.1
	c0.2,1,0.5,1.9,1.1,2.8c0.1,0.1,0.2,0.3,0.3,0.4c0.2,0.2,0.3,0.3,0.5,0.5c0,0,0,0,0.1,0c0.3,0.2,0.6,0.3,1,0.3c0.6,0,1.1,0,1.7,0
	c0.7,0,1.3-0.5,1.3-1.2c0-0.9,0-1.8,0-2.7C23.2,23.3,22.8,22.8,22.2,22.7z M15.9,22.7c-0.3,0.1-0.6,0.2-0.9,0.2s-0.6,0-0.9-0.2
	c-0.1,0-0.2-0.1-0.2-0.1c-0.5-0.2-1-0.7-1.2-1.2c0-0.1-0.1-0.1-0.1-0.2c-0.1-0.3-0.1-0.6-0.1-0.9s0-0.6,0.1-0.9
	c0-0.1,0.1-0.2,0.1-0.2c0.2-0.5,0.7-1,1.2-1.2c0.1,0,0.1-0.1,0.2-0.1c0.3-0.1,0.6-0.2,0.9-0.2s0.6,0,0.9,0.1c0.1,0,0.2,0.1,0.2,0.1
	c0.3,0.1,0.6,0.4,0.8,0.6c0.2,0.2,0.3,0.4,0.4,0.6c0,0.1,0.1,0.2,0.1,0.2c0.1,0.3,0.1,0.6,0.1,0.9s0,0.6-0.1,0.9
	c0,0.1-0.1,0.2-0.1,0.2c-0.1,0.2-0.2,0.4-0.3,0.5c-0.2,0.3-0.5,0.5-0.9,0.7C16.1,22.6,16,22.6,15.9,22.7z"/>
<g>
	<path class="st2" d="M29.3,14.8L28,15.6c0.6,1.4,0.9,3,0.9,4.7c0,1.5-0.3,2.9-0.7,4.3l1.3,0.7c0.6-1.6,0.9-3.2,0.9-5
		C30.4,18.3,30,16.5,29.3,14.8z"/>
</g>
<g>
	<path class="st2" d="M26.8,16.2L25.5,17c0.4,1,0.6,2.2,0.6,3.3c0,1-0.2,2-0.4,2.9l1.3,0.7c0.4-1.1,0.6-2.3,0.6-3.6
		C27.6,18.8,27.3,17.5,26.8,16.2z"/>
</g>
<g>
	<path class="st2" d="M24.5,17.5l-1.3,0.8c0.2,0.6,0.3,1.3,0.3,2c0,0.5-0.1,1-0.2,1.5l1.4,0.8c0.2-0.7,0.3-1.5,0.3-2.3
		C24.9,19.3,24.8,18.4,24.5,17.5z"/>
</g>
</svg>
