<?xml version="1.0" encoding="utf-8"?>
<!-- Generator: Adobe Illustrator 28.3.0, SVG Export Plug-In . SVG Version: 6.00 Build 0)  -->
<svg version="1.1" id="Layer_1" xmlns="http://www.w3.org/2000/svg" xmlns:xlink="http://www.w3.org/1999/xlink" x="0px" y="0px"
	 viewBox="0 0 40 40" style="enable-background:new 0 0 40 40;" xml:space="preserve">
<style type="text/css">
	.st0{fill:#FFFFFF;}
	.st1{fill:#625EAA;}
</style>
<rect class="st0" width="40" height="40"/>
<rect x="19.2" y="19.2" transform="matrix(-1.836970e-16 1 -1 -1.836970e-16 49.7266 -9.7266)" class="st1" width="21" height="1.5"/>
<rect x="7" y="13.6" transform="matrix(-1.836970e-16 1 -1 -1.836970e-16 26.1639 2.5233)" class="st1" width="9.7" height="1.5"/>
<rect x="11" y="9.5" transform="matrix(-1 -1.224647e-16 1.224647e-16 -1 41.5758 20.5469)" class="st1" width="19.5" height="1.5"/>
<rect x="15.2" y="29" transform="matrix(-1 -1.224647e-16 1.224647e-16 -1 45.73 59.4592)" class="st1" width="15.3" height="1.5"/>
<rect x="67.3" y="25.3" transform="matrix(-1.836970e-16 1 -1 -1.836970e-16 97.755 -45.6981)" class="st1" width="8.8" height="1.5"/>
<g>
	<path class="st1" d="M24.8,25.3h-9.5c0.1-2.5,2.2-4.5,4.8-4.5C22.6,20.7,24.6,22.7,24.8,25.3z"/>
	<circle class="st1" cx="20" cy="17" r="2.2"/>
</g>
<polygon class="st1" points="9.5,19.2 14.1,19.2 11.8,22 "/>
</svg>
