<?xml version="1.0" encoding="utf-8"?>
<!-- Generator: Adobe Illustrator 28.3.0, SVG Export Plug-In . SVG Version: 6.00 Build 0)  -->
<svg version="1.1" id="Layer_1" xmlns="http://www.w3.org/2000/svg" xmlns:xlink="http://www.w3.org/1999/xlink" x="0px" y="0px"
	 viewBox="0 0 40 40" style="enable-background:new 0 0 40 40;" xml:space="preserve">
<style type="text/css">
	.st0{fill:#FFFFFF;}
	.st1{fill:#625EAA;}
</style>
<rect class="st0" width="40" height="40"/>
<rect x="14" y="20" transform="matrix(-1 -1.224647e-16 1.224647e-16 -1 44.4997 41.5466)" class="st1" width="16.5" height="1.5"/>
<rect x="14" y="17" transform="matrix(-1 -1.224647e-16 1.224647e-16 -1 44.4997 35.5493)" class="st1" width="16.5" height="1.5"/>
<rect x="14" y="14" transform="matrix(-1 -1.224647e-16 1.224647e-16 -1 44.4997 29.5521)" class="st1" width="16.5" height="1.5"/>
<rect x="9.5" y="9.5" transform="matrix(-1 -1.224647e-16 1.224647e-16 -1 40 22.051)" class="st1" width="21" height="3.1"/>
<rect x="14" y="23" transform="matrix(-1 -1.224647e-16 1.224647e-16 -1 44.4997 47.5438)" class="st1" width="16.5" height="1.5"/>
<rect x="14" y="26" transform="matrix(-1 -1.224647e-16 1.224647e-16 -1 44.4997 53.5411)" class="st1" width="16.5" height="1.5"/>
<rect x="14" y="29" transform="matrix(-1 -1.224647e-16 1.224647e-16 -1 44.4997 59.5383)" class="st1" width="16.5" height="1.5"/>
<rect x="9.5" y="20" transform="matrix(-1 -1.224647e-16 1.224647e-16 -1 21.8114 41.5457)" class="st1" width="2.8" height="1.5"/>
<rect x="9.5" y="17" transform="matrix(-1 -1.224647e-16 1.224647e-16 -1 21.8114 35.5485)" class="st1" width="2.8" height="1.5"/>
<rect x="9.5" y="14" transform="matrix(-1 -1.224647e-16 1.224647e-16 -1 21.8114 29.5512)" class="st1" width="2.8" height="1.5"/>
<rect x="9.5" y="23" transform="matrix(-1 -1.224647e-16 1.224647e-16 -1 21.8114 47.543)" class="st1" width="2.8" height="1.5"/>
<rect x="9.5" y="26" transform="matrix(-1 -1.224647e-16 1.224647e-16 -1 21.8114 53.5402)" class="st1" width="2.8" height="1.5"/>
<rect x="9.5" y="29" transform="matrix(-1 -1.224647e-16 1.224647e-16 -1 21.8114 59.5375)" class="st1" width="2.8" height="1.5"/>
<g>
	<path class="st1" d="M85.6,25.3h-9.5c0.1-2.5,2.2-4.5,4.8-4.5C83.4,20.7,85.5,22.7,85.6,25.3z"/>
	<circle class="st1" cx="80.9" cy="17" r="2.2"/>
</g>
</svg>
