<?xml version="1.0" encoding="utf-8"?>
<!-- Generator: Adobe Illustrator 28.3.0, SVG Export Plug-In . SVG Version: 6.00 Build 0)  -->
<svg version="1.1" id="Layer_1" xmlns="http://www.w3.org/2000/svg" xmlns:xlink="http://www.w3.org/1999/xlink" x="0px" y="0px"
	 viewBox="0 0 43 33.3" style="enable-background:new 0 0 43 33.3;" xml:space="preserve">
<style type="text/css">
	.st0{fill:#FFFFFF;}
</style>
<g>
	<path class="st0" d="M26.3,16.6c0-3.5,1.9-6.6,4.8-8.2c-2.9-5-8.2-8.4-14.4-8.4C7.4,0.1,0,7.5,0,16.6c0,9.2,7.4,16.6,16.6,16.6
		c6.2,0,11.5-3.4,14.4-8.4C28.2,23.2,26.3,20.2,26.3,16.6z M16.6,6.7c1.9,0,3.5,1.6,3.5,3.5c0,1.9-1.5,3.5-3.5,3.5
		c-1.9,0-3.5-1.5-3.5-3.5C13.2,8.2,14.7,6.7,16.6,6.7z M8.8,23.3c0-4.3,3.5-7.8,7.8-7.8c4.3,0,7.8,3.5,7.8,7.8H8.8z"/>
	<path class="st0" d="M35.8,9.5c-4,0-7.2,3.2-7.2,7.2c0,4,3.2,7.2,7.2,7.2c4,0,7.2-3.2,7.2-7.2C43,12.7,39.8,9.5,35.8,9.5z M34,12.9
		l1.8,1.8l1.3-1.3l-0.6-0.6l2.2-0.1l-0.1,2.2l-0.6-0.7l-2.1,2.1l-2.6-2.6L34,12.9z M37.7,20.4v-1.1c-1.3-0.2-2.4-0.2-3.7,0v1.1h-2.6
		c0-1.1,0.5-2.7,1.3-2.9c2.5-0.5,3.9-0.5,6.4,0v0c0.8,0.2,1.3,1.8,1.3,2.9H37.7z"/>
</g>
</svg>
