<?xml version="1.0" encoding="utf-8"?>
<!-- Generator: Adobe Illustrator 28.3.0, SVG Export Plug-In . SVG Version: 6.00 Build 0)  -->
<svg version="1.1" id="Layer_1" xmlns="http://www.w3.org/2000/svg" xmlns:xlink="http://www.w3.org/1999/xlink" x="0px" y="0px"
	 viewBox="0 0 43 33.3" style="enable-background:new 0 0 43 33.3;" xml:space="preserve">
<style type="text/css">
	.st0{fill:#FFFFFF;}
</style>
<g>
	<path class="st0" d="M26.4,16.7c0-3.4,1.8-6.4,4.5-8c-2.8-5-8.2-8.4-14.4-8.4C7.4,0.2,0,7.6,0,16.7c0,9.1,7.4,16.5,16.5,16.5
		c6.2,0,11.6-3.4,14.4-8.4C28.2,23,26.4,20,26.4,16.7z M16.5,6.7c1.9,0,3.4,1.5,3.4,3.4c0,1.9-1.5,3.4-3.4,3.4
		c-1.9,0-3.4-1.5-3.4-3.4C13,8.3,14.6,6.7,16.5,6.7z M8.7,23.2c0-4.3,3.5-7.7,7.7-7.7s7.7,3.5,7.7,7.7H8.7z"/>
	<path class="st0" d="M35.9,9.5c-1.5,0-2.9,0.5-4,1.2c-1.9,1.3-3.1,3.5-3.1,5.9s1.2,4.6,3.1,5.9c1.1,0.8,2.5,1.2,4,1.2
		c3.9,0,7.1-3.2,7.1-7.1C43,12.7,39.8,9.5,35.9,9.5z M33,18.3h-0.1h-1.2v-3.7h1.1H33V18.3z M35.4,18.3h-1.3v-3.7h1.3V18.3z
		 M39.6,19.6c-0.2,0.8-1.7,1.3-2.9,1.3v-2.6h1.1c0.2-1.3,0.2-2.4,0-3.7h-1.1v-2.6c1.1,0,2.7,0.5,2.9,1.3
		C40.1,15.8,40.1,17.1,39.6,19.6z"/>
</g>
</svg>
