<?xml version="1.0" encoding="utf-8"?>
<!-- Generator: Adobe Illustrator 28.3.0, SVG Export Plug-In . SVG Version: 6.00 Build 0)  -->
<svg version="1.1" id="Layer_1" xmlns="http://www.w3.org/2000/svg" xmlns:xlink="http://www.w3.org/1999/xlink" x="0px" y="0px"
	 viewBox="0 0 40 40" style="enable-background:new 0 0 40 40;" xml:space="preserve">
<style type="text/css">
	.st0{fill:#FFFFFF;}
	.st1{fill:#625EAA;}
</style>
<rect class="st0" width="40" height="40"/>
<rect x="9.5" y="29" transform="matrix(-1 -1.224647e-16 1.224647e-16 -1 39.9999 59.4609)" class="st1" width="21" height="1.5"/>
<rect x="23.2" y="23.2" transform="matrix(6.123234e-17 -1 1 6.123234e-17 5.7305 53.7305)" class="st1" width="13" height="1.5"/>
<rect x="3.8" y="23.2" transform="matrix(6.123234e-17 -1 1 6.123234e-17 -13.7305 34.2695)" class="st1" width="13" height="1.5"/>
<rect x="16.8" y="13.6" transform="matrix(6.123234e-17 -1 1 6.123234e-17 5.6718 34.3281)" class="st1" width="6.3" height="1.5"/>
<rect x="19.2" y="17.5" class="st1" width="6" height="1.5"/>
<rect x="22.6" y="19.4" transform="matrix(-1.836970e-16 1 -1 -1.836970e-16 45.3942 -5.082)" class="st1" width="5.3" height="1.5"/>
<rect x="17.3" y="19.4" transform="matrix(-1.836970e-16 1 -1 -1.836970e-16 40.156 0.1563)" class="st1" width="5.3" height="1.5"/>
<circle class="st1" cx="20" cy="25.4" r="1.5"/>
<circle class="st1" cx="14.8" cy="25.4" r="1.5"/>
<circle class="st1" cx="25.2" cy="25.4" r="1.5"/>
<polygon class="st1" points="18.3,11.4 21.7,11.4 20,9.5 "/>
</svg>
