<?xml version="1.0" encoding="utf-8"?>
<!-- Generator: Adobe Illustrator 28.3.0, SVG Export Plug-In . SVG Version: 6.00 Build 0)  -->
<svg version="1.1" id="Layer_1" xmlns="http://www.w3.org/2000/svg" xmlns:xlink="http://www.w3.org/1999/xlink" x="0px" y="0px"
	 viewBox="0 0 40 40" style="enable-background:new 0 0 40 40;" xml:space="preserve">
<style type="text/css">
	.st0{fill:#FFFFFF;}
	.st1{fill:#625EAA;}
</style>
<rect class="st0" width="40" height="40"/>
<rect x="9.5" y="9.5" class="st1" width="21" height="1.5"/>
<rect x="3.8" y="15.2" transform="matrix(-1.836970e-16 1 -1 -1.836970e-16 26.2695 5.7305)" class="st1" width="13" height="1.5"/>
<rect x="23.2" y="15.2" transform="matrix(-1.836970e-16 1 -1 -1.836970e-16 45.7304 -13.7305)" class="st1" width="13" height="1.5"/>
<rect x="16.8" y="24.9" transform="matrix(-1.836970e-16 1 -1 -1.836970e-16 45.6718 5.6718)" class="st1" width="6.3" height="1.5"/>
<rect x="14.8" y="21" transform="matrix(-1 -1.224647e-16 1.224647e-16 -1 35.5312 43.4609)" class="st1" width="6" height="1.5"/>
<rect x="12.1" y="19.1" transform="matrix(6.123234e-17 -1 1 6.123234e-17 -5.082 34.6057)" class="st1" width="5.3" height="1.5"/>
<rect x="17.3" y="19.1" transform="matrix(6.123234e-17 -1 1 6.123234e-17 0.1563 39.844)" class="st1" width="5.3" height="1.5"/>
<circle class="st1" cx="20" cy="14.6" r="1.5"/>
<circle class="st1" cx="25.2" cy="14.6" r="1.5"/>
<circle class="st1" cx="14.8" cy="14.6" r="1.5"/>
<polygon class="st1" points="21.7,28.6 18.3,28.6 20,30.5 "/>
</svg>
