<?xml version="1.0" encoding="UTF-8"?>
<svg id="Layer_1" data-name="Layer 1" xmlns="http://www.w3.org/2000/svg" version="1.1" viewBox="0 0 16.7 16.7">
  <defs>
    <style>
      .cls-1 {
        fill: #6259ca;
      }

      .cls-1, .cls-2 {
        stroke-width: 0px;
      }

      .cls-2 {
        fill: #fff;
      }
    </style>
  </defs>
  <rect class="cls-1" x=".5" y=".7" width="1.6" height="15.3"/>
  <polygon class="cls-1" points="13 16 11.1 16 10 14.4 7.3 10.1 8.7 9.2 11.9 14.4 13 16"/>
  <polygon class="cls-1" points="8.1 14.4 9.1 16 .5 16 .5 14.4 8.1 14.4"/>
  <polygon class="cls-1" points="9.9 2.3 .5 2.3 .5 .7 8.3 .7 9.9 2.3"/>
  <polygon class="cls-1" points="12.3 4.7 10 4.7 8.4 3.1 6 .7 8.3 .7 9.9 2.3 10.7 3.1 12.3 4.7"/>
  <polygon class="cls-1" points="15.9 3.1 15.9 4.7 10 4.7 8.4 3.1 15.9 3.1"/>
  <rect class="cls-1" x="14.3" y="3.9" width="1.6" height="12.1"/>
  <circle class="cls-1" cx="7.7" cy="9.2" r="3.4"/>
  <circle class="cls-2" cx="7.7" cy="9.2" r="1.8"/>
</svg>