<?xml version="1.0" encoding="utf-8"?>
<!-- Generator: Adobe Illustrator 28.3.0, SVG Export Plug-In . SVG Version: 6.00 Build 0)  -->
<svg version="1.1" id="Layer_1" xmlns="http://www.w3.org/2000/svg" xmlns:xlink="http://www.w3.org/1999/xlink" x="0px" y="0px"
	 viewBox="0 0 40 40" style="enable-background:new 0 0 40 40;" xml:space="preserve">
<style type="text/css">
	.st0{fill:#FFFFFF;}
	.st1{fill:#625EAA;}
</style>
<g>
	<rect class="st0" width="40" height="40"/>
	<rect x="17.9" y="9.4" class="st1" width="4.2" height="21.2"/>
	
		<rect x="17.9" y="9.4" transform="matrix(-1.836970e-16 1 -1 -1.836970e-16 40 3.552714e-15)" class="st1" width="4.2" height="21.2"/>
	<rect x="17.9" y="9.4" transform="matrix(0.7071 0.7071 -0.7071 0.7071 20 -8.2843)" class="st1" width="4.2" height="21.2"/>
	<rect x="17.9" y="9.4" transform="matrix(-0.7071 0.7071 -0.7071 -0.7071 48.2843 20)" class="st1" width="4.2" height="21.2"/>
	<circle class="st1" cx="20" cy="20" r="8.3"/>
	<circle class="st0" cx="20" cy="20" r="5.1"/>
	<rect x="17.7" y="19.1" transform="matrix(0.7071 -0.7071 0.7071 0.7071 -9.3214 19.1756)" class="st1" width="1.6" height="3.5"/>
	<rect x="19.9" y="17.1" transform="matrix(0.7071 0.7071 -0.7071 0.7071 20.1974 -8.7608)" class="st1" width="1.6" height="5.9"/>
</g>
</svg>
