<?xml version="1.0" encoding="utf-8"?>
<!-- Generator: Adobe Illustrator 28.3.0, SVG Export Plug-In . SVG Version: 6.00 Build 0)  -->
<svg version="1.1" id="Layer_1" xmlns="http://www.w3.org/2000/svg" xmlns:xlink="http://www.w3.org/1999/xlink" x="0px" y="0px"
	 viewBox="0 0 40 40" style="enable-background:new 0 0 40 40;" xml:space="preserve">
<style type="text/css">
	.st0{fill:#FFFFFF;}
	.st1{fill:#625EAA;}
</style>
<rect class="st0" width="40" height="40"/>
<path class="st1" d="M26.2,16.5V20c0,3.1-2.5,5.6-5.6,5.6h-1.3c-3.1,0-5.6-2.5-5.6-5.6v-3.6h-1.5v3.7c0,3.9,3.1,7,7,7h0v3.3h1.5
	v-3.3h0c3.9,0,7-3.1,7-7v-3.7H26.2z"/>
<path class="st1" d="M15.2,14.3v5.1c0,2.6,2.1,4.8,4.8,4.8h0c2.6,0,4.8-2.1,4.8-4.8v-5.1c0-2.6-2.1-4.8-4.8-4.8h0
	C17.4,9.5,15.2,11.6,15.2,14.3z M20,22.6L20,22.6c-1.8,0-3.2-1.5-3.2-3.2v-5.1c0-1.8,1.5-3.2,3.2-3.2h0c1.8,0,3.2,1.5,3.2,3.2v5.1
	C23.2,21.2,21.8,22.6,20,22.6z"/>
</svg>
