<?xml version="1.0" encoding="utf-8"?>
<!-- Generator: Adobe Illustrator 28.3.0, SVG Export Plug-In . SVG Version: 6.00 Build 0)  -->
<svg version="1.1" id="Layer_1" xmlns="http://www.w3.org/2000/svg" xmlns:xlink="http://www.w3.org/1999/xlink" x="0px" y="0px"
	 viewBox="0 0 40 40" style="enable-background:new 0 0 40 40;" xml:space="preserve">
<style type="text/css">
	.st0{fill:#FFFFFF;}
	.st1{fill:#625EAA;}
</style>
<rect class="st0" width="40" height="40"/>
<path class="st1" d="M10.3,11L10.3,11c-0.4,0-0.8-0.3-0.8-0.7v0c0-0.4,0.3-0.7,0.7-0.7h0c0.4,0,0.7,0.3,0.7,0.7v0
	C11,10.7,10.7,11,10.3,11z"/>
<rect x="12.3" y="9.5" class="st1" width="7.2" height="1.5"/>
<path class="st1" d="M10.3,13.9L10.3,13.9c-0.4,0-0.8-0.3-0.8-0.7v0c0-0.4,0.3-0.7,0.7-0.7h0c0.4,0,0.7,0.3,0.7,0.7v0
	C11,13.6,10.7,13.9,10.3,13.9z"/>
<rect x="12.3" y="12.4" class="st1" width="7.2" height="1.5"/>
<path class="st1" d="M10.3,16.8L10.3,16.8c-0.4,0-0.8-0.3-0.8-0.8l0,0c0-0.4,0.3-0.8,0.7-0.8h0c0.4,0,0.7,0.3,0.7,0.8l0,0
	C11,16.5,10.7,16.8,10.3,16.8z"/>
<rect x="12.3" y="15.3" class="st1" width="7.2" height="1.5"/>
<rect x="9.5" y="29" class="st1" width="21" height="1.5"/>
<g>
	<rect x="25.4" y="21.2" class="st1" width="3" height="6.3"/>
	<rect x="16.4" y="22.7" class="st1" width="3" height="4.8"/>
	<rect x="11.6" y="24.2" class="st1" width="3" height="3.3"/>
	<rect x="21" y="19.3" class="st1" width="3" height="8.2"/>
</g>
<path class="st1" d="M23.2,13.9h2.4l-1,2.2C23.9,15.6,23.4,14.8,23.2,13.9z"/>
<path class="st1" d="M30.4,13.9c-0.3,1.7-1.8,2.9-3.6,2.9c-0.3,0-0.6,0-0.8-0.1l1.3-2.8H30.4z"/>
<path class="st1" d="M30.4,12.4h-7.2c0.3-1.7,1.8-2.9,3.6-2.9S30,10.8,30.4,12.4z"/>
</svg>
