<?xml version="1.0" encoding="utf-8"?>
<!-- Generator: Adobe Illustrator 28.3.0, SVG Export Plug-In . SVG Version: 6.00 Build 0)  -->
<svg version="1.1" id="Layer_1" xmlns="http://www.w3.org/2000/svg" xmlns:xlink="http://www.w3.org/1999/xlink" x="0px" y="0px"
	 viewBox="0 0 40 40" style="enable-background:new 0 0 40 40;" xml:space="preserve">
<style type="text/css">
	.st0{fill:#FFFFFF;}
	.st1{fill:#625EAA;}
</style>
<rect class="st0" width="40" height="40"/>
<rect x="15.3" y="29" transform="matrix(-1 -1.224647e-16 1.224647e-16 -1 40 59.5375)" class="st1" width="9.4" height="1.5"/>
<rect x="17.7" y="27.4" transform="matrix(6.123234e-17 -1 1 6.123234e-17 -8.2219 48.2218)" class="st1" width="4.6" height="1.5"/>
<rect x="8" y="15.9" transform="matrix(6.123234e-17 -1 1 6.123234e-17 -1.5274 31.8796)" class="st1" width="14.4" height="1.5"/>
<rect x="14.4" y="9.5" class="st1" width="11.2" height="1.5"/>
<rect x="14.4" y="22.4" class="st1" width="11.2" height="1.5"/>
<rect x="17.6" y="15.9" transform="matrix(6.123234e-17 -1 1 6.123234e-17 8.1211 41.528)" class="st1" width="14.4" height="1.5"/>
<rect x="23.7" y="20.6" transform="matrix(6.123234e-17 -1 1 6.123234e-17 8.3149 51.1383)" class="st1" width="12.1" height="1.5"/>
<rect x="4.2" y="20.6" transform="matrix(6.123234e-17 -1 1 6.123234e-17 -11.1383 31.6851)" class="st1" width="12.1" height="1.5"/>
<rect x="9.5" y="15.4" transform="matrix(-1 -1.224647e-16 1.224647e-16 -1 25.1875 32.2968)" class="st1" width="6.2" height="1.5"/>
<rect x="27.4" y="15.4" transform="matrix(-1 -1.224647e-16 1.224647e-16 -1 57.9062 32.2968)" class="st1" width="3.1" height="1.5"/>
<rect x="17.4" y="13.1" transform="matrix(-1 -1.224647e-16 1.224647e-16 -1 40.0007 27.6566)" class="st1" width="5.1" height="1.5"/>
<rect x="17.4" y="15.9" transform="matrix(-1 -1.224647e-16 1.224647e-16 -1 40.0007 33.4066)" class="st1" width="5.1" height="1.5"/>
<rect x="17.4" y="18.8" transform="matrix(-1 -1.224647e-16 1.224647e-16 -1 40.0007 39.1566)" class="st1" width="5.1" height="1.5"/>
<rect x="9.5" y="25.9" transform="matrix(-1 -1.224647e-16 1.224647e-16 -1 40 53.3499)" class="st1" width="21" height="1.5"/>
</svg>
