<?xml version="1.0" encoding="utf-8"?>
<!-- Generator: Adobe Illustrator 28.3.0, SVG Export Plug-In . SVG Version: 6.00 Build 0)  -->
<svg version="1.1" id="Layer_1" xmlns="http://www.w3.org/2000/svg" xmlns:xlink="http://www.w3.org/1999/xlink" x="0px" y="0px"
	 viewBox="0 0 16.7 16.7" style="enable-background:new 0 0 16.7 16.7;" xml:space="preserve">
<style type="text/css">
	.st0{fill:#FFFFFF;}
</style>
<g>
	<g>
		<path class="st0" d="M8.3,16.7c-2,0-3.9-0.8-5.3-2.2C0.1,11.5,0.1,6.8,3,3.8L4.2,5c-2.3,2.3-2.3,6.1,0,8.4
			c1.1,1.1,2.6,1.7,4.2,1.7c1.6,0,3.1-0.6,4.2-1.7c2.3-2.3,2.3-6.1,0-8.4l1.1-1.1c2.9,2.9,2.9,7.7,0,10.6
			C12.2,15.9,10.3,16.7,8.3,16.7z"/>
	</g>
	<g>
		<rect x="7.5" y="0" class="st0" width="1.6" height="9.9"/>
	</g>
</g>
</svg>
