<?xml version="1.0" encoding="UTF-8"?>
<svg id="Layer_1" data-name="Layer 1" xmlns="http://www.w3.org/2000/svg" version="1.1" viewBox="0 0 16.7 16.7">
  <defs>
    <style>
      .cls-1 {
        fill: #3cbb96;
        stroke-width: 0px;
      }
    </style>
  </defs>
  <path class="cls-1" d="M14.9.7H1.5c-.5,0-1,.5-1,1v13.3c0,.5.5,1,1,1h13.4c.5,0,1-.5,1-1V1.7c0-.5-.5-1-1-1ZM12.8,12c-.3.3-.6.6-.9.9-.2.2-.4.3-.7.4,0,0,0,0,0,0h-.5c-.1,0-.2,0-.3,0-.8-.2-1.4-.5-2.1-.9-.9-.6-1.7-1.2-2.4-2-.6-.7-1.2-1.4-1.7-2.2-.3-.5-.6-1.1-.7-1.7,0-.2,0-.4-.1-.6v-.3c0-.1,0-.2,0-.3,0-.2.1-.3.2-.5.3-.4.7-.7,1-1,.3-.3.8-.3,1.2,0,0,0,.1,0,.2.2.4.4.9.9,1.3,1.3.3.3.4.8.2,1.2-.1.2-.3.3-.5.4-.3,0-.5.3-.6.5,0,.2,0,.3,0,.5.1.5.4.8.6,1.2.4.5.9.9,1.5,1.2.2.1.4.2.7.2.4,0,.6-.2.8-.5,0-.2.2-.4.3-.5.4-.3.9-.2,1.2,0,.5.5,1,.9,1.4,1.4.4.4.3,1,0,1.4Z"/>
</svg>