<?xml version="1.0" encoding="utf-8"?>
<!-- Generator: Adobe Illustrator 28.3.0, SVG Export Plug-In . SVG Version: 6.00 Build 0)  -->
<svg version="1.1" id="Layer_1" xmlns="http://www.w3.org/2000/svg" xmlns:xlink="http://www.w3.org/1999/xlink" x="0px" y="0px"
	 viewBox="0 0 40 40" style="enable-background:new 0 0 40 40;" xml:space="preserve">
<style type="text/css">
	.st0{fill:#FFFFFF;}
	.st1{fill:#625EAA;}
</style>
<rect class="st0" width="40" height="40"/>
<circle class="st1" cx="25.3" cy="14.7" r="5.1"/>
<rect x="23" y="13.8" transform="matrix(0.7071 -0.7071 0.7071 0.7071 -4.0208 21.3681)" class="st0" width="1.6" height="3.5"/>
<rect x="25.2" y="11.8" transform="matrix(0.7071 0.7071 -0.7071 0.7071 17.9997 -14.0592)" class="st0" width="1.6" height="5.9"/>
<g>
	<g>
		<path class="st1" d="M9.6,16.8c0-0.2,0.1-0.4,0.1-0.6c0.1-0.3,0.2-0.6,0.4-0.8c0.6-0.6,1.1-1.2,1.8-1.8c0.6-0.5,1.4-0.5,2-0.1
			c0.1,0.1,0.2,0.2,0.3,0.3c0.7,0.7,1.5,1.5,2.2,2.2c0.6,0.6,0.7,1.3,0.3,2c-0.2,0.3-0.5,0.5-0.8,0.7c-0.5,0.2-0.8,0.5-1,0.9
			c-0.1,0.3-0.1,0.6-0.1,0.9c0.2,0.8,0.6,1.5,1.1,2.1c0.7,0.9,1.5,1.6,2.6,2.1c0.4,0.2,0.8,0.3,1.2,0.3c0.6-0.1,1.1-0.4,1.4-0.9
			c0.1-0.3,0.3-0.6,0.6-0.9c0.6-0.5,1.5-0.4,2,0.1c0.8,0.8,1.7,1.6,2.5,2.5c0.6,0.6,0.6,1.7-0.1,2.4c-0.5,0.5-1,1-1.6,1.6
			c-0.3,0.3-0.8,0.5-1.2,0.6c0,0-0.1,0-0.1,0c-0.3,0-0.6,0-0.9,0c-0.2,0-0.4-0.1-0.6-0.1c-1.3-0.3-2.5-0.9-3.6-1.6
			c-1.5-1-2.9-2.2-4.2-3.5c-1.1-1.2-2.1-2.4-2.9-3.8c-0.5-0.9-1-1.8-1.3-2.9c-0.1-0.4-0.2-0.7-0.2-1.1C9.6,17.2,9.6,17,9.6,16.8z"/>
	</g>
</g>
</svg>
