<?xml version="1.0" encoding="utf-8"?>
<!-- Generator: Adobe Illustrator 28.3.0, SVG Export Plug-In . SVG Version: 6.00 Build 0)  -->
<svg version="1.1" id="Layer_1" xmlns="http://www.w3.org/2000/svg" xmlns:xlink="http://www.w3.org/1999/xlink" x="0px" y="0px"
	 viewBox="0 0 40 40" style="enable-background:new 0 0 40 40;" xml:space="preserve">
<style type="text/css">
	.st0{fill:#FFFFFF;}
	.st1{fill:#625EAA;}
</style>
<rect class="st0" width="40" height="40"/>
<path class="st1" d="M19.2,19.2H9.5c0-2.7,2.2-4.9,4.9-4.9C17,14.4,19.2,16.5,19.2,19.2z"/>
<circle class="st1" cx="14.4" cy="12.2" r="2.7"/>
<path class="st1" d="M30.5,19.2h-9.7c0-2.7,2.2-4.9,4.9-4.9C28.3,14.4,30.5,16.5,30.5,19.2z"/>
<circle class="st1" cx="25.6" cy="12.2" r="2.7"/>
<path class="st1" d="M19.2,30.5H9.5c0-2.7,2.2-4.9,4.9-4.9C17,25.6,19.2,27.8,19.2,30.5z"/>
<circle class="st1" cx="14.4" cy="23.5" r="2.7"/>
<path class="st1" d="M30.5,30.5h-9.7c0-2.7,2.2-4.9,4.9-4.9C28.3,25.6,30.5,27.8,30.5,30.5z"/>
<circle class="st1" cx="25.6" cy="23.5" r="2.7"/>
</svg>
