<?xml version="1.0" encoding="utf-8"?>
<!-- Generator: Adobe Illustrator 28.3.0, SVG Export Plug-In . SVG Version: 6.00 Build 0)  -->
<svg version="1.1" id="Layer_1" xmlns="http://www.w3.org/2000/svg" xmlns:xlink="http://www.w3.org/1999/xlink" x="0px" y="0px"
	 viewBox="0 0 40 40" style="enable-background:new 0 0 40 40;" xml:space="preserve">
<style type="text/css">
	.st0{fill:#FFFFFF;}
	.st1{fill:#625EAA;}
</style>
<rect class="st0" width="40" height="40"/>
<rect x="16.2" y="16.2" class="st1" width="10" height="3.7"/>
<rect x="16.2" y="21.4" class="st1" width="10" height="3.7"/>
<rect x="16.2" y="26.7" class="st1" width="10" height="3.7"/>
<path class="st1" d="M22.6,14.6h-7.9v7.9c-2.9-0.7-5-3.3-5-6.4c0-3.6,2.9-6.6,6.6-6.6C19.3,9.6,21.9,11.7,22.6,14.6z"/>
<circle class="st1" cx="11.1" cy="25.1" r="1.5"/>
<circle class="st1" cx="24.4" cy="11.1" r="1.5"/>
<rect x="13.4" y="24.7" transform="matrix(6.123234e-17 -1 1 6.123234e-17 -14.3935 42.6996)" class="st1" width="1.5" height="7.7"/>
<rect x="28.9" y="10.3" class="st1" width="1.5" height="14.2"/>
<rect x="10.3" y="25.1" class="st1" width="1.5" height="4.2"/>
<rect x="26.6" y="8" transform="matrix(-1.836970e-16 1 -1 -1.836970e-16 38.4375 -16.3194)" class="st1" width="1.5" height="6.1"/>
<rect x="27" y="21.1" transform="matrix(-1.836970e-16 1 -1 -1.836970e-16 51.5005 -4.1405)" class="st1" width="1.5" height="5.2"/>
</svg>
