<?xml version="1.0" encoding="utf-8"?>
<!-- Generator: Adobe Illustrator 28.3.0, SVG Export Plug-In . SVG Version: 6.00 Build 0)  -->
<svg version="1.1" id="Layer_1" xmlns="http://www.w3.org/2000/svg" xmlns:xlink="http://www.w3.org/1999/xlink" x="0px" y="0px"
	 viewBox="0 0 174.5 122.8" style="enable-background:new 0 0 174.5 122.8;" xml:space="preserve">
<style type="text/css">
	.st0{fill:#C3C1E1;}
	.st1{fill:#DDDCEE;}
	.st2{fill:#FAB8A0;}
	.st3{fill:#E2A893;}
	.st4{fill:#272D69;}
	.st5{fill:#1F1110;}
	.st6{fill:#C6736F;}
	.st7{clip-path:url(#SVGID_00000181784132539779053830000010065274834593560968_);}
	.st8{fill:#131324;}
	.st9{fill:#F6F6F6;}
	.st10{fill:#D0D2D3;}
	.st11{fill:#E6E7E7;}
	.st12{fill:#FFFFFF;}
	.st13{fill:#161918;}
</style>
<g>
	<g>
		<g>
			<path class="st0" d="M26.1,87.9l21.6-23.3c4.4-4.6,10.6-7.2,17.1-7.2h7.1c6.1,0,11.9,2.3,16.2,6.3L111,87.9H26.1z"/>
		</g>
		<g>
			<path class="st0" d="M29.1,84.6L8.9,106.5c-2.5,2.9-2.2,7.2,0.6,9.8l0,0c2.1,2,5.3,2.4,7.9,1.2c9.5-4.6,31.4-15.3,31-16
				c-0.3-0.5-3.7-9-7.7-15.9C38.2,81.4,32.3,80.9,29.1,84.6z"/>
		</g>
		<g>
			<circle class="st1" cx="14.6" cy="110.1" r="9.7"/>
		</g>
		<g>
			<g>
				<g>
					<path class="st2" d="M68.1,64.7L68.1,64.7c-4.3,0-7.7-2.4-7.7-6.7V42h15.4v16C75.8,62.2,72.3,64.7,68.1,64.7z"/>
				</g>
				<g>
					<path class="st3" d="M59.9,46.1c0,0,1.7,6.1,8.1,6.1c6.7,0,8.1-5.9,8.1-5.9L59.9,46.1z"/>
				</g>
				<g>
					<circle class="st3" cx="55" cy="29" r="4.4"/>
				</g>
				<g>
					<circle class="st3" cx="81.4" cy="29" r="4.4"/>
				</g>
				<g>
					<path class="st2" d="M68.2,49.7L68.2,49.7c-7.3,0-13.2-5.9-13.2-13.2v-22c0-7.3,5.9-13.2,13.2-13.2l0,0
						c7.3,0,13.2,5.9,13.2,13.2v22C81.4,43.8,75.5,49.7,68.2,49.7z"/>
				</g>
				<g>
					<g>
						<path class="st4" d="M77.5,17.1H71c-0.4,0-0.7-0.3-0.7-0.7c0-0.4,0.3-0.7,0.7-0.7h6.5c0.4,0,0.7,0.3,0.7,0.7
							C78.2,16.7,77.9,17.1,77.5,17.1z"/>
					</g>
					<g>
						<path class="st4" d="M65.4,17.1h-6.5c-0.4,0-0.7-0.3-0.7-0.7c0-0.4,0.3-0.7,0.7-0.7h6.5c0.4,0,0.7,0.3,0.7,0.7
							C66.2,16.7,65.8,17.1,65.4,17.1z"/>
					</g>
					<g>
						<path class="st5" d="M74.3,21c0,0.6-0.5,1.1-1.1,1.1c-0.6,0-1.1-0.5-1.1-1.1c0-0.6,0.5-1.1,1.1-1.1
							C73.8,19.9,74.3,20.4,74.3,21z"/>
					</g>
					<g>
						<path class="st5" d="M63.9,21c0,0.6-0.5,1.1-1.1,1.1c-0.6,0-1.1-0.5-1.1-1.1c0-0.6,0.5-1.1,1.1-1.1
							C63.4,19.9,63.9,20.4,63.9,21z"/>
					</g>
					<g>
						<path class="st6" d="M67.5,32.8C67.4,32.8,67.4,32.8,67.5,32.8c-0.2,0-0.3,0-0.4-0.1C67,32.5,66.7,31.9,67,21
							c0-0.2,0.2-0.4,0.4-0.4c0.2,0,0.4,0.2,0.4,0.4c-0.1,5.9-0.2,9.3-0.1,11c1.1-0.1,1.8-1.3,1.8-3.3c0-0.2,0.2-0.4,0.4-0.4
							c0.2,0,0.4,0.2,0.4,0.4C70.2,32.3,68.3,32.8,67.5,32.8z M67.7,32.3L67.7,32.3L67.7,32.3z M67.4,32C67.4,32,67.4,32,67.4,32
							C67.4,32,67.4,32,67.4,32z"/>
					</g>
				</g>
				<g>
					<defs>
						<path id="SVGID_1_" d="M68.2,49.7L68.2,49.7c-7.3,0-13.2-5.9-13.2-13.2v-22c0-7.3,5.9-13.2,13.2-13.2l0,0
							c7.3,0,13.2,5.9,13.2,13.2v22C81.4,43.8,75.5,49.7,68.2,49.7z"/>
					</defs>
					<clipPath id="SVGID_00000123434190816686991420000012046541948048934787_">
						<use xlink:href="#SVGID_1_"  style="overflow:visible;"/>
					</clipPath>
					<g style="clip-path:url(#SVGID_00000123434190816686991420000012046541948048934787_);">
						<circle class="st8" cx="68" cy="0.8" r="9.9"/>
					</g>
					<g style="clip-path:url(#SVGID_00000123434190816686991420000012046541948048934787_);">
						<path class="st8" d="M55.5,25.7L55.5,25.7c0.5,0,0.8-0.4,0.8-0.9l0-9.4c0-1.3,0.2-2.7,0.6-3.9c1.4-4,4.2-5.2,6.7-5.1l-3.8-3.7
							H55v22.9H55.5z"/>
					</g>
					<g style="clip-path:url(#SVGID_00000123434190816686991420000012046541948048934787_);">
						<path class="st8" d="M80.9,25.7L80.9,25.7c-0.5,0-0.8-0.4-0.8-0.9l0-9.4c0-1.3-0.2-2.7-0.6-3.9c-1.4-4-4.2-5.2-6.7-5.1
							l3.8-3.7h4.9v22.9H80.9z"/>
					</g>
				</g>
			</g>
			<g>
				<path class="st9" d="M61.9,34.9h12.2c0,0-1.1,4.2-6.1,4.2C63,39,61.9,34.9,61.9,34.9z"/>
			</g>
		</g>
		<g>
			<path class="st2" d="M61.3,102.3l-42.6,13.9c-3.9,1.3-8.1-0.9-9.4-4.8l0,0c-1.3-3.9,0.9-8.1,4.8-9.4l42.6-13.9
				c3.9-1.3,8.1,0.9,9.4,4.8v0C67.3,96.8,65.2,101,61.3,102.3z"/>
		</g>
		<g>
			<path class="st0" d="M108,84.6l20.2,21.9c2.5,2.9,2.2,7.2-0.6,9.8l0,0c-2.1,2-5.3,2.4-7.9,1.2c-9.5-4.6-31.4-15.3-31-16
				c0.3-0.5,3.7-9,7.7-15.9C98.9,81.4,104.8,80.9,108,84.6z"/>
		</g>
		<g>
			<circle class="st1" cx="122.5" cy="110.1" r="9.7"/>
		</g>
		<g>
			<path class="st2" d="M75.8,102.3l42.6,13.9c3.9,1.3,8.1-0.9,9.4-4.8l0,0c1.3-3.9-0.9-8.1-4.8-9.4L80.4,88.2
				c-3.9-1.3-8.1,0.9-9.4,4.8v0C69.8,96.8,71.9,101,75.8,102.3z"/>
		</g>
		<g>
			<g>
				<path class="st10" d="M116.2,119.8h-96c-1.8,0-3.2-1.4-3.2-3.2l0,0c0-1.8,1.4-3.2,3.2-3.2h96c1.8,0,3.2,1.4,3.2,3.2l0,0
					C119.3,118.3,117.9,119.8,116.2,119.8z"/>
			</g>
			<g>
				<path class="st11" d="M104.7,119.8H32c-3,0-5.5-2.4-5.5-5.5V73.5c0-3,2.4-5.5,5.5-5.5h72.7c3,0,5.5,2.4,5.5,5.5v40.8
					C110.2,117.3,107.7,119.8,104.7,119.8z"/>
			</g>
			<g>
				<path class="st10" d="M68.3,100.4c-3.3,0-6-2.7-6-6s2.7-6,6-6c3.3,0,6,2.7,6,6S71.6,100.4,68.3,100.4z"/>
			</g>
		</g>
	</g>
	<g>
		<g>
			<g>
				<path class="st12" d="M144.2,115.7c-1,0-2.1-0.2-2.9-0.9c-0.8-0.6-1.3-1.5-1.5-2.7c-0.3-1.6,0-2.9,0.7-3.9
					c1.3-1.7,3.6-1.3,3.9-1.2l-0.2,1.7c-0.5-0.1-2-0.2-2.6,0.7c-0.4,0.5-0.5,1.2-0.3,2.3c0.1,0.7,0.4,1.2,0.9,1.6
					c1.3,1,3.6,0.5,4.4,0.3l0.7,1.7C147,115.3,145.5,115.7,144.2,115.7z"/>
			</g>
			<g>
				<g>
					<path class="st12" d="M154.8,119.3c5.9,0,10.8-5.7,11.2-12.9c0-0.5-0.3-1-0.7-1h-21c-0.4,0-0.8,0.5-0.7,1
						C144,113.6,148.9,119.3,154.8,119.3z"/>
				</g>
			</g>
		</g>
		<g>
			<path class="st12" d="M150.5,99.9c-3.2-3.7-3.4-9.5-0.1-13.2c4-4.9,6.2-10.7,4-16.9c-0.4-1.5-1-2.9-1.6-4.4
				c1.6,2.7,2.9,5.6,3.3,8.8c0.7,4.9-1.9,9.4-4.9,13.1C147.9,90.8,148,96,150.5,99.9L150.5,99.9z"/>
		</g>
		<g>
			<path class="st12" d="M157.9,99.9c-2.4-2.9-3.5-7.4-1.6-10.9c0.9-1.8,2.3-3,3.2-4.7c5.4-8.1,3.2-18.5-1.6-26.4
				c1.1,1.5,2.1,3.2,3,4.8c3.5,6.8,3.9,15.6-0.6,22c-0.9,1.6-2.4,2.9-3.3,4.5C155.1,92.7,155.9,96.8,157.9,99.9L157.9,99.9z"/>
		</g>
	</g>
	<g>
		<path class="st13" d="M171.3,121.5H3.2c-0.9,0-1.7-0.8-1.7-1.7s0.8-1.7,1.7-1.7h168c0.9,0,1.7,0.8,1.7,1.7
			S172.2,121.5,171.3,121.5z"/>
	</g>
</g>
</svg>
