<?xml version="1.0" encoding="utf-8"?>
<!-- Generator: Adobe Illustrator 28.3.0, SVG Export Plug-In . SVG Version: 6.00 Build 0)  -->
<svg version="1.1" id="Layer_1" xmlns="http://www.w3.org/2000/svg" xmlns:xlink="http://www.w3.org/1999/xlink" x="0px" y="0px"
	 viewBox="0 0 43 33.3" style="enable-background:new 0 0 43 33.3;" xml:space="preserve">
<style type="text/css">
	.st0{fill:#FFFFFF;}
</style>
<g>
	<path class="st0" d="M26.3,16.6c0-3.5,1.9-6.6,4.8-8.2C28.2,3.4,22.8,0,16.6,0C7.4,0,0,7.5,0,16.6c0,9.2,7.4,16.6,16.6,16.6
		c6.2,0,11.5-3.4,14.4-8.4C28.2,23.2,26.3,20.2,26.3,16.6z M16.6,6.7c1.9,0,3.4,1.5,3.4,3.5c0,1.9-1.5,3.4-3.4,3.4
		c-1.9,0-3.5-1.5-3.5-3.4C13.2,8.2,14.7,6.7,16.6,6.7z M8.8,23.3c0-4.3,3.5-7.8,7.8-7.8c4.3,0,7.8,3.5,7.8,7.8H8.8z"/>
	<path class="st0" d="M35.8,9.5c-4,0-7.2,3.2-7.2,7.2c0,4,3.2,7.2,7.2,7.2c4,0,7.2-3.2,7.2-7.2C43,12.7,39.8,9.5,35.8,9.5z
		 M32.9,18.8l-1.8-1.8l0.8-0.8l1,1l2.6-2.6l0.8,0.8L32.9,18.8z M40.1,19.8c-0.2,0.8-1.8,1.3-2.9,1.3v-2.6h1.1c0.2-1.3,0.2-2.4,0-3.8
		h-1.1v-2.6c1.1,0,2.7,0.5,2.9,1.3c0.3,1.3,0.4,2.2,0.4,3.2C40.5,17.6,40.3,18.6,40.1,19.8z"/>
</g>
</svg>
